<svg version="1.2" xmlns="http://www.w3.org/2000/svg" viewBox="0 0 800 800" width="31" height="31">
	<title>template</title>
	<style>
		.s0 { fill: #000000 } 
		.s1 { fill: #ff0000 } 
	</style>
	<path id="CG" class="s0" aria-label="CG"  d="m264.4 698.8q-74 0-126.9-29.9-51.9-30.9-80.1-83.7-27.3-53.8-27.3-123.4 0-74 27.3-139.1 27.3-66.1 74.9-116.3 47.5-50.2 109.2-78.4 62.5-28.2 132.1-28.2 51.1 0 85.5 9.7 34.3 9.7 74 32.6l-21.2 156.8h-14.9l-41.4-117.2q-20.3-20.3-41.5-30.8-20.2-10.6-51-10.6-56.4 0-100.5 24.7-44 23.7-74.9 66.9-30.8 42.3-46.6 97.8-15.9 54.6-15.9 116.3 0 99.5 44.9 155.9 45 55.5 117.2 55.5 35.2 0 65.2-13.2 29.9-13.2 54.6-29.1l77.5-103h15l-34.4 142.7q-40.5 20.2-86.3 32.6-45.8 11.4-114.5 11.4z"/>
	<path id="CG" class="s1" aria-label="CG"  d="m457.3 698.8q-72.2 0-124.2-29.9-51.1-30.9-78.4-83.7-27.3-53.8-27.3-123.4 0-74.8 28.2-140 29.1-66.1 78.4-116.3 49.3-50.2 112.7-78.4 63.5-28.2 133.1-28.2 56.3 0 94.2 9.7 37.9 9.7 81.1 33.5l-22.1 148h-14l-40.6-108.4q-22.9-22-47.5-31.7-24.7-9.7-59.9-9.7-59.1 0-105.8 25.5-45.8 24.7-78.4 67.9-31.7 42.3-48.4 97.8-16.7 55.5-16.7 116.2 0 96.1 46.6 148.9 47.6 52.9 121.6 52.9 22.9 0 46.7-3.5 24.7-3.6 50.2-11.5l26.4-151.5-67.8-37 3.5-14.1h220.3l-2.7 14.1-65.2 39.6-23.8 139.2q-29 22.9-66.9 39.7-37.9 15.8-77.5 25.5-39.7 8.8-75.8 8.8z"/>
</svg>